{"title":"Love Me - Justin Bieber 1080p - TinyPixel","uid":5854774,"size":87594825,"categoryP":"video","categoryS":"music_videos","magnet":"?xt=urn:btih:35df473bac46e4f4edc804376c50de93b9d4e67b&amp;dn=Love+Me+-+Justin+Bieber+1080p+-+TinyPixel&amp;tr=udp%3A%2F%2Ftracker.openbittorrent.com%3A80&amp;tr=udp%3A%2F%2Fopen.demonii.com%3A1337&amp;tr=udp%3A%2F%2Ftracker.coppersurfer.tk%3A6969&amp;tr=udp%3A%2F%2Fexodus.desync.com%3A6969","seeders":0,"leechers":1,"uploader":"sup3xtian","files":1,"time":1285559415,"description":"YOUTUBE RIP\n\n\n\nGeneral\nFormat                           : MPEG-4\nFormat profile                   : Base Media / Version 2\nCodec ID                         : mp42\nFile size                        : 83.5 MiB\nDuration                         : 3mn 13s\nOverall bit rate                 : 3 630 Kbps\n\n\nVideo\n\nFormat                           : AVC\nFormat/Info                      : Advanced Video Codec\nFormat profile                   : &lt;a class=&quot;__cf_email__&quot; href=&quot;/cdn-cgi/l/email-protection&quot; data-cfemail=&quot;baf2d3ddd2faf68e948a&quot;&gt;[email&amp;#160;protected]&lt;/a&gt;&lt;script cf-hash='f9e31' type=&quot;text/javascript&quot;&gt;\n/* &lt;![CDATA[ */!function(){try{var t=&quot;currentScript&quot;in document?document.currentScript:function(){for(var t=document.getElementsByTagName(&quot;script&quot;),e=t.length;e--;)if(t[e].getAttribute(&quot;cf-hash&quot;))return t[e]}();if(t&amp;&amp;t.previousSibling){var e,r,n,i,c=t.previousSibling,a=c.getAttribute(&quot;data-cfemail&quot;);if(a){for(e=&quot;&quot;,r=parseInt(a.substr(0,2),16),n=2;a.length-n;n+=2)i=parseInt(a.substr(n,2),16)^r,e+=String.fromCharCode(i);e=document.createTextNode(e),c.parentNode.replaceChild(e,c)}}}catch(u){}}();/* ]]&gt; */&lt;/script&gt;\nFormat settings, CABAC           : Yes\nFormat settings, ReFrames        : 1 frame\nCodec ID                         : avc1\nCodec ID/Info                    : Advanced Video Coding\nDuration                         : 3mn 13s\nBit rate mode                    : Variable\nBit rate                         : 3 497 Kbps\nMaximum bit rate                 : 9 495 Kbps\nWidth                            : 1 920 pixels\nHeight                           : 1 080 pixels\nDisplay aspect ratio             : 16:9\nFrame rate mode                  : Variable\nFrame rate                       : 23.976 fps\nMinimum frame rate               : 23.810 fps\nMaximum frame rate               : 24.390 fps\nColor space                      : YUV\nChroma subsampling               : 4:2:0\nBit depth                        : 8 bits\nScan type                        : Progressive\nBits/(Pixel*Frame)               : 0.070\nStream size                      : 80.5 MiB (96%)\n\n\nAudio\n\nFormat                           : AAC\nFormat/Info                      : Advanced Audio Codec\nFormat version                   : Version 4\nFormat profile                   : LC\nFormat settings, SBR             : No\nCodec ID                         : 40\nDuration                         : 3mn 13s\nBit rate mode                    : Variable\nBit rate                         : 127 Kbps\nMaximum bit rate                 : 161 Kbps\nChannel(s)                       : 2 channels\nChannel positions                : Front: L R\nSampling rate                    : 44.1 KHz\nStream size                      : 2.92 MiB (3%)\n\n\nmore at","torrent":{"xt":"urn:btih:35df473bac46e4f4edc804376c50de93b9d4e67b","amp;dn":"Love+Me+-+Justin+Bieber+1080p+-+TinyPixel","amp;tr":["udp%3A%2F%2Ftracker.openbittorrent.com%3A80","udp%3A%2F%2Fopen.demonii.com%3A1337","udp%3A%2F%2Ftracker.coppersurfer.tk%3A6969","udp%3A%2F%2Fexodus.desync.com%3A6969"],"infoHash":"35df473bac46e4f4edc804376c50de93b9d4e67b","infoHashBuffer":{"type":"Buffer","data":[53,223,71,59,172,70,228,244,237,200,4,55,108,80,222,147,185,212,230,123]},"announce":[],"urlList":[]}}